<svg viewBox="0 0 1288.7 692.77" xmlns="http://www.w3.org/2000/svg" fill="#fff"><path d="M477.99 160v-25.83a96.74 96.74 0 0 0-40 26.94V160a88.09 88.09 0 0 0-88 88v56a16 16 0 0 0 16 16h16a16 16 0 0 0 16-16v-56c0-13.22 6.87-24.39 16.78-31.69-.22 2.6-.78 5.07-.78 7.69a95.47 95.47 0 0 0 30.53 69.88l-25.72 68.6a64.13 64.13 0 0 0-2.15 38l24.84 99.4c1.69 6.68 8.62 12.12 15.5 12.12h66a16 16 0 0 0 15.53-19.88l-26.34-105.26 23.81-63.59 22 3.66v-72.54a95.83 95.83 0 0 1-80-94.39zm160 0v-32h-128v32a64 64 0 0 0 128 0zm287.9-83.41a31.69 31.69 0 0 0-8.56-21.79c-3.78-4-8.59-9.11-13.69-14.5 11.07-6.85 19.5-17.49 22.19-30.66A8.11 8.11 0 0 0 917.89 0h-120a127.94 127.94 0 0 0-127.9 127.05v33a95.83 95.83 0 0 1-80 94.39v77.87l80 13.33V496a16 16 0 0 0 16 16h64a16 16 0 0 0 16-16V318.22a111.5 111.5 0 0 0 32-78.22 3.55 3.55 0 0 0-.1-.64V136.89l16 7.11 18.91 37.7a32 32 0 0 0 40.5 15.36l32.56-13c11.13-4.45 20.13-17.76 20.13-29.72zm-64 19.41a16 16 0 1 1 16-16 16 16 0 0 1-16 16z"/><g stroke-width="3.8"><path d="M220.72 607.97q-.304-2.584-1.216-5.015-.76-2.584-2.431-3.8-1.216-.76-3.04-1.064t-5.015-.304l-.76-.608-.456-5.775.304-.608q1.368.152 3.647.304l4.864.304q2.583.152 4.863.304h16.11q2.28-.152 4.711-.304 2.584-.152 4.864-.304 2.431-.152 3.951-.304l.304.608-.456 5.775-.608.608q-3.8 0-5.623.456-1.672.304-2.736 1.064-3.191 2.128-3.647 8.663-.152 1.52-.304 3.192V667.394q.152 2.432.152 4.407.152 1.824.456 4.408.152 3.04 3.495 3.04h14.134q5.016 0 7.903-.153 3.04-.304 4.712-1.215 1.671-1.064 2.583-2.888t1.672-5.015l.456-.608h6.991l-2.735 20.82-1.216 1.52q-1.216-.151-3.8-.303-2.583 0-5.471-.152-2.888 0-5.775-.152h-39.971q-2.28.152-4.863.304t-5.016.304-3.647.304l-.304-.608.456-5.776.76-.607q5.775 0 7.903-1.672 1.215-1.064 2.28-3.344 1.215-2.28 1.52-5.32.151-1.519.151-4.103.152-2.735.152-5.623.152-2.888.152-5.32V631.223q0-8.359-.152-14.59 0-6.383-.304-8.663zM331.82 591.4l-.456 5.775-.608.608q-2.432 0-4.56.304-2.127.152-3.647 1.216-1.368 1.064-2.583 2.735-1.064 1.672-1.064 5.928-.152 2.127-.304 3.951 0 1.824-.152 4.256V667.542q.152 2.28.152 3.951.152 1.52.304 3.344.304 4.255 1.367 5.927t2.28 2.736q1.368 1.063 3.496 1.367 2.28.152 4.711.152l.608.608.456 5.775-.304.608q-1.064 0-3.496-.152t-5.015-.304-5.015-.303-3.496-.152h-8.966q-1.064 0-3.496.152t-5.015.303-5.016.304-3.495.152l-.304-.608.456-5.775.76-.608q2.432 0 4.56-.152 2.279-.304 3.495-1.367t2.127-2.736q1.064-1.672 1.672-5.927v-2.432q.152-1.52.152-3.647.152-2.128.152-5.168t0-7.599v-33.74q0-3.648-.152-6.23 0-2.584-.152-4.408 0-1.824-.152-3.648-.304-3.951-1.368-5.775t-2.28-2.887q-1.367-1.064-3.495-1.216-2.127-.304-4.56-.304l-.76-.608-.455-5.775.304-.608q1.064 0 3.495.152t5.016.304 5.015.304 3.496.152h8.966q1.064 0 3.496-.152t5.015-.304 5.015-.304 3.496-.152zM452.34 591.4l-.304 5.775-.76.608q-2.28 0-4.56.304-2.127.152-3.495 1.216-1.216 1.064-2.583 2.735-1.216 1.672-1.672 5.928-.152 2.127-.304 3.951 0 1.824-.152 4.256v52.585q.152 5.47.152 9.422.152 3.8.304 6.84.304 3.04.608 6.687l-1.216.76-18.694-.76-1.52-1.824-46.962-70.823q.304 2.735.304 8.815.152 5.927.152 13.83V663.895q.152 3.19.152 6.23.152 2.888.304 4.712.304 3.8 1.672 5.775t2.887 2.888q1.216 1.215 3.192 1.367t5.015.152l.76.608.456 5.775-.304.608q-1.216 0-3.495-.152-2.128-.152-4.56-.304l-4.56-.303q-2.127-.152-3.19-.152h-8.968q-1.063 0-3.495.152t-5.015.303-5.016.304-3.495.152l-.304-.608.456-5.775.76-.608q2.735 0 4.56-.152 1.975-.304 3.495-1.367 1.063-.76 2.583-2.432 1.52-1.824 1.976-6.231.152-1.064.152-2.432.152-1.52.152-3.648t0-5.167 0-7.599v-39.97q0-2.584-.152-4.408 0-1.824-.152-3.648-.304-3.191-1.824-5.471-1.368-2.28-2.735-3.192-1.368-1.215-3.496-1.367-1.976-.152-4.56-.152l-.76-.608-.455-5.776.304-.607q1.064 0 3.04.152l4.255.303q2.128.151 4.103.304 2.128.152 3.192.152h12.918q1.216 0 3.04-.152t3.191-.455l.76.455q.456 2.128 2.28 5.928 1.824 3.647 4.407 8.359 2.736 4.559 5.775 9.726l6.08 10.031q5.47 9.12 9.726 15.958 4.256 6.687 7.6 11.702t5.774 8.511q2.432 3.344 4.104 5.623v-7.75q.152-3.8.152-7.752V622.252q0-3.647-.152-6.232 0-2.583-.152-4.407 0-1.824-.152-3.647-.304-2.584-1.368-4.712-.912-2.28-3.04-3.951-1.367-1.216-3.647-1.368-2.128-.152-4.56-.152l-.607-.608-.456-5.775.304-.608q1.064 0 3.04.152t3.95.304q2.129.152 4.104.304t3.04.152h16.262q1.975-.152 4.103-.304t4.104-.304 3.04-.304zM475.74 607.97q-.304-3.8-1.368-5.775t-2.431-2.888q-1.368-1.216-2.888-1.368-1.368-.152-5.167-.152l-.76-.608-.456-5.775.304-.608q1.064 0 3.04.152t4.255.304 4.407.304q2.28.152 3.952.152H497.929l5.775-.304q2.887-.152 5.472-.152 2.735-.152 4.559-.152 11.854 0 21.125 4.104 9.423 3.951 15.806 10.79t9.727 15.959q3.495 9.119 3.495 19.3 0 10.032-3.343 19.15-3.192 8.967-9.575 15.958-6.383 6.839-15.958 10.943t-22.19 4.103q-1.215 0-3.799-.152h-5.319q-2.736 0-5.471-.152h-18.238q-1.064 0-3.495.152t-5.016.304-5.015.304-3.495.152l-.304-.608.456-5.775.76-.608q1.823 0 4.255-.152 2.432-.304 3.8-1.216 1.215-.911 2.28-2.887t1.519-5.927v-2.432q.152-1.52.152-3.648.152-2.127.152-5.167t0-7.599v-36.019q0-3.496-.152-6.84 0-3.343-.152-5.167zm32.068 71.279q9.119 0 16.11-2.888 6.991-3.04 11.702-8.206 4.863-5.168 7.295-12.006 2.584-6.992 2.584-14.894 0-8.207-2.584-15.046-2.584-6.992-7.599-12.006-4.863-5.016-12.006-7.751-7.143-2.888-16.262-2.888h-13.374q-.304 4.407-.456 7.447 0 2.888-.152 5.927t-.152 6.687V665.724q.152 5.015.456 7.599.456 3.951 1.976 5.015 1.52.912 5.471.912zM619.66 591.71h6.231q4.256-.152 8.663-.304t7.903-.152q3.496-.152 4.255-.152l.912 1.52-.76 19.605h-6.839l-.608-.608q-.304-2.888-.911-4.56-.456-1.671-2.736-2.431t-7.143-.912q-4.712-.152-13.222-.152h-8.663l-.152 1.368q-.152 2.128-.304 3.951 0 1.824-.152 4.256V633.2q3.648-.152 6.991 0 3.344 0 6.231-.152t4.864-.456q2.127-.456 3.04-1.368 1.52-1.52 1.52-4.255l.76-.76 5.622-.304.608.304q-.304 3.495-.608 6.08-.152 2.583-.152 5.926 0 3.648.152 6.84.304 3.04.608 6.687l-.608.304-5.775-.304-.608-.456q0-3.8-1.368-5.624-1.215-1.671-6.99-1.823-5.624-.304-12.615-.304h-1.671V663.292q.152 2.887.152 5.015.151 1.976.303 3.8t.304 4.255q.152 2.887 3.04 2.887h6.84q8.662 0 13.525-.304 5.015-.304 7.6-1.367 2.583-1.216 3.647-3.344 1.215-2.128 2.127-5.775l.608-.608h7.143l-2.887 22.34-1.216 1.52q-.76 0-3.8-.151-2.887 0-6.535-.152t-7.295-.304h-36.475q-1.064 0-3.495.152t-5.016.304-5.015.304-3.495.152l-.304-.608.456-5.775.76-.608q2.431 0 4.559-.152 2.128-.304 3.495-1.368 1.216-1.064 2.28-2.736 1.216-1.672 1.52-5.927v-2.432q.152-1.52.152-3.647.152-2.128.152-5.167t0-7.6v-39.97q0-2.584-.152-4.408 0-1.824-.152-3.647-.304-4.104-1.52-5.928-1.064-1.823-2.28-2.735-1.367-1.216-3.495-1.368t-4.56-.152l-.76-.608-.455-5.775.304-.608q1.063 0 3.495.152t5.167.304q2.888.152 5.472.304 2.735.152 4.407.152zM771.64 591.4l-.304 5.775-.76.608q-2.28 0-4.56.304-2.127.152-3.495 1.216-1.216 1.064-2.583 2.735-1.216 1.672-1.672 5.928-.152 2.127-.304 3.951 0 1.824-.152 4.256v52.585q.152 5.47.152 9.422.152 3.8.304 6.84.304 3.04.608 6.687l-1.216.76-18.694-.76-1.52-1.824-46.962-70.823q.304 2.735.304 8.815.152 5.927.152 13.83V663.895q.152 3.19.152 6.23.152 2.888.304 4.712.304 3.8 1.672 5.775t2.887 2.888q1.216 1.215 3.192 1.367t5.015.152l.76.608.456 5.775-.304.608q-1.216 0-3.495-.152-2.128-.152-4.56-.304l-4.56-.303q-2.127-.152-3.19-.152h-8.968q-1.063 0-3.495.152t-5.015.303-5.016.304-3.495.152l-.304-.608.456-5.775.76-.608q2.735 0 4.56-.152 1.975-.304 3.495-1.367 1.064-.76 2.583-2.432 1.52-1.824 1.976-6.231.152-1.064.152-2.432.152-1.52.152-3.648t0-5.167 0-7.599v-39.97q0-2.584-.152-4.408 0-1.824-.152-3.648-.304-3.191-1.824-5.471-1.368-2.28-2.735-3.192-1.368-1.215-3.496-1.367-1.976-.152-4.56-.152l-.76-.608-.455-5.776.304-.607q1.064 0 3.04.152l4.255.303q2.128.151 4.103.304 2.128.152 3.192.152h12.918q1.216 0 3.04-.152t3.191-.455l.76.455q.456 2.128 2.28 5.928 1.824 3.647 4.407 8.359 2.736 4.559 5.775 9.726l6.08 10.031q5.47 9.12 9.726 15.958 4.256 6.687 7.6 11.702t5.774 8.511q2.432 3.344 4.104 5.623v-7.75q.152-3.8.152-7.752V622.252q0-3.647-.152-6.232 0-2.583-.152-4.407 0-1.824-.152-3.647-.304-2.584-1.368-4.712-.912-2.28-3.04-3.951-1.367-1.216-3.647-1.368-2.128-.152-4.56-.152l-.607-.608-.456-5.775.304-.608q1.064 0 3.04.152t3.95.304q2.129.152 4.104.304t3.04.152h16.262q1.975-.152 4.103-.304t4.104-.304 3.04-.304zM887.15 692.01q-1.064 0-3.495-.152t-5.016-.304-5.015-.304-3.496-.152h-8.966q-1.064 0-3.496.152t-5.015.304-5.016.304-3.495.152l-.304-.608.456-5.775.608-.608q2.432 0 4.56-.152 2.127-.304 3.647-1.368 1.368-1.064 2.128-2.735t1.52-5.928q.151-1.064.151-2.431.152-1.52.152-3.648.152-2.128.152-5.167t0-7.6v-12.157h-44.986v23.709q.152 2.28.152 3.951.152 1.52.304 3.344.304 4.255 1.368 5.927t2.28 2.736q1.367 1.064 3.495 1.367 2.28.152 4.712.152l.608.608.455 5.776-.304.607q-1.063 0-3.495-.151t-5.015-.304-5.016-.304-3.495-.152h-8.967q-1.064 0-3.495.152t-5.016.304-5.015.304-3.496.151l-.303-.607.455-5.776.76-.608q2.432 0 4.56-.152 2.127-.303 3.495-1.367 1.216-1.064 2.28-2.736 1.216-1.672 1.52-5.927v-2.432q.152-1.52.152-3.647.152-2.128.152-5.168t0-7.599v-33.739q0-3.647-.152-6.232 0-2.583-.152-4.407 0-1.824-.152-3.648-.304-3.951-1.368-5.775t-2.28-2.887q-1.368-1.064-3.495-1.216-2.128-.304-4.56-.304l-.76-.608-.455-5.775.304-.608q1.063 0 3.495.152t5.015.304 5.016.304 3.495.152h8.967q1.064 0 3.495-.152t5.016-.304 5.015-.304 3.496-.152l.303.608-.455 5.775-.608.608q-2.128 0-4.56.304-2.28.152-3.647 1.216-1.216 1.064-2.432 2.735-1.064 1.672-1.216 5.927-.152 2.128-.304 3.952 0 1.824-.152 4.255V632.586h44.986v-10.334q0-3.647-.152-6.232 0-2.583-.152-4.407 0-1.824-.152-3.648-.304-4.255-1.367-5.927t-2.28-2.735q-1.368-1.064-3.648-1.216-2.127-.304-4.56-.304l-.607-.608-.456-5.775.304-.608q1.064 0 3.496.152t5.015.304 5.015.304 3.496.152h8.966q1.064 0 3.496-.152t5.015-.304 5.016-.304 3.495-.152l.304.608-.456 5.775-.76.608q-2.432 0-4.711.304-2.128.152-3.344 1.216t-2.28 2.735q-.911 1.672-1.52 5.927-.151 2.128-.303 3.952v59.576q.152 1.52.304 3.344.304 4.255 1.367 5.927 1.216 1.672 2.432 2.735 1.368 1.064 3.496 1.368 2.127.152 4.559.152l.76.608.456 5.775zM948.55 590.03q11.702 0 20.821 4.104t15.35 11.247q6.231 6.99 9.423 16.262 3.343 9.27 3.343 19.452 0 10.031-3.191 19.453-3.192 9.271-9.575 16.414-6.231 7.144-15.654 11.55-9.27 4.256-21.58 4.256-11.855 0-20.822-4.104-8.967-4.103-15.046-10.943-5.927-6.99-8.967-16.11-3.04-9.27-3.04-19.453 0-10.79 3.344-20.213 3.344-9.574 9.575-16.566 6.231-7.143 15.35-11.247 9.119-4.103 20.669-4.103zm-.152 90.124q7.447 0 13.222-3.04 5.927-3.191 9.879-8.358 3.951-5.32 6.079-12.31 2.128-7.144 2.128-15.198 0-8.207-2.28-15.198-2.128-7.144-6.383-12.31-4.104-5.168-10.031-8.055-5.927-3.04-13.374-3.04-7.295 0-12.918 2.888-5.623 2.887-9.423 8.055t-5.775 12.31q-1.976 6.99-1.976 15.198 0 9.118 2.28 16.414 2.28 7.143 6.383 12.158t9.727 7.75q5.623 2.736 12.462 2.736zM1022.4 607.97q-.304-4.407-1.52-6.08-1.064-1.671-2.28-2.583-1.367-1.216-3.495-1.368t-4.56-.152l-.76-.608-.455-5.775.304-.608q1.063 0 3.495.152t5.015.304q2.584.152 5.016.304 2.431.152 3.495.152h32.676q4.255-.152 8.662-.304 4.408-.152 7.903-.152 3.496-.152 4.256-.152l.912 1.52-.76 19.605h-6.84l-.607-.608q-.304-2.887-.912-4.56-.456-1.671-2.736-2.431t-7.143-.912q-4.711-.152-13.222-.152h-8.51l-.305 5.927q0 1.52-.152 2.888 0 1.216-.152 2.888 0 1.671-.152 4.255v13.678q3.648-.152 6.991 0 3.496 0 6.232-.152 2.887-.152 5.015-.456 2.128-.456 3.04-1.368 1.367-1.368 1.367-4.407l.76-.76 5.624-.304.607.304q-.152 1.976-.304 3.495l-.303 2.736q0 1.368-.152 2.736v3.191q0 3.648.152 6.991.303 3.192.607 6.84l-.607.303-5.776-.304-.608-.456q0-3.951-1.52-5.927-.76-.76-2.735-1.216-1.976-.455-4.863-.607-2.736-.304-6.384-.304h-7.143v24.013q.152 2.28.152 3.951.152 1.52.304 3.344.304 4.407 1.52 6.079 1.368 1.672 2.584 2.584 1.368 1.215 3.951 1.367 2.736.152 5.168.152l.76.608.455 5.775-.304.608q-1.063 0-3.799-.152-2.584-.152-5.471-.304t-5.624-.304q-2.583-.152-3.647-.152h-8.967q-1.064 0-3.495.152-2.432.152-5.016.304-2.583.152-5.015.304t-3.496.152l-.304-.608.456-5.775.76-.608q2.432 0 4.56-.152 2.127-.304 3.495-1.367 1.216-1.064 2.28-2.736 1.216-1.672 1.52-5.927v-2.432q.152-1.52.152-3.647.152-2.128.152-5.168t0-7.599v-33.74q0-3.647-.152-6.23 0-2.584-.152-4.408v-3.648z"/></g><path d="M0 631.74h177.19v19.33H0zM1111.5 631.74h177.19v19.33H1111.5z"/></svg>